<?xml version="1.0" standalone="no"?>
<!DOCTYPE svg PUBLIC "-//W3C//DTD SVG 20010904//EN"
 "http://www.w3.org/TR/2001/REC-SVG-20010904/DTD/svg10.dtd">
<svg version="1.0" xmlns="http://www.w3.org/2000/svg"
 width="16.000000pt" height="16.000000pt" viewBox="0 0 16.000000 16.000000"
 preserveAspectRatio="xMidYMid meet">
<metadata>
Created by potrace 1.11, written by Peter Selinger 2001-2013
</metadata>
<g transform="translate(0.000000,16.000000) scale(0.011111,-0.011111)"
fill="#000000" stroke="none">
<path d="M432 1238 c-11 -14 -152 -851 -152 -903 l0 -25 124 0 123 0 -8 -43
c-18 -92 -23 -87 100 -87 75 0 112 4 119 13 5 6 20 68 31 137 13 78 27 129 36
136 8 6 52 14 98 16 179 12 279 101 308 275 15 88 1 145 -47 190 -31 29 -34
37 -34 88 0 58 -22 116 -57 147 -10 10 -41 28 -68 40 -47 22 -64 23 -306 26
-208 3 -257 1 -267 -10z"/>
</g>
</svg>
